<svg width="125" height="125" viewBox="0 0 125 125" fill="none" xmlns="http://www.w3.org/2000/svg">
<circle cx="62.5" cy="62.5" r="48" fill="white" stroke="#159600" stroke-width="7"/>
<circle cx="62.5" cy="62.5" r="61" stroke="#159600" stroke-width="3"/>
<path d="M55.0518 51.2483C55.4836 51.2599 55.9623 51.2834 56.4177 52.2983C56.7197 52.9739 57.2285 54.2177 57.6429 55.231C57.9654 56.0194 58.2308 56.6682 58.2972 56.801C58.4489 57.1042 58.5423 57.4542 58.3439 57.8624C58.3205 57.9105 58.2984 57.9566 58.2771 58.0009C58.1179 58.3326 58.0046 58.5686 57.7369 58.8773C57.6268 59.0041 57.5121 59.1432 57.3979 59.2818C57.197 59.5256 56.9974 59.7678 56.8262 59.9389C56.5228 60.2419 56.2074 60.5688 56.5576 61.1753C56.908 61.7818 58.1338 63.7766 59.9433 65.3864C61.8886 67.1251 63.5803 67.8578 64.4354 68.2282C64.6014 68.3001 64.7359 68.3584 64.8346 68.4077C65.4417 68.7109 65.8036 68.6643 66.1538 68.2561C66.5041 67.8477 67.6714 66.4828 68.0801 65.8763C68.477 65.2698 68.8855 65.3632 69.446 65.5731C70.0063 65.783 72.9948 67.2528 73.6018 67.556C73.7218 67.616 73.834 67.67 73.9381 67.7201C74.3604 67.9234 74.6475 68.0616 74.7693 68.2677C74.921 68.5243 74.921 69.7375 74.4191 71.1606C73.9055 72.5837 71.4305 73.9485 70.3098 74.0535C70.2036 74.0635 70.0981 74.0764 69.9894 74.0896C68.9623 74.2143 67.6585 74.3726 63.0134 72.537C57.2897 70.2774 53.5114 64.671 52.7476 63.5375C52.6872 63.4481 52.6457 63.3864 52.6235 63.3566L52.6106 63.3392C52.2631 62.8723 50.1369 60.0162 50.1369 57.0694C50.1369 54.25 51.5203 52.7821 52.1513 52.1126C52.1913 52.0702 52.2283 52.031 52.2617 51.9948C52.822 51.3883 53.4759 51.2367 53.8844 51.2367C54.2931 51.2367 54.7016 51.2367 55.0518 51.2483Z" fill="#159600"/>
<path fill-rule="evenodd" clip-rule="evenodd" d="M39.2362 84.7996C39.0431 85.5033 39.6814 86.1527 40.3848 85.9683L51.2578 83.1171C54.6899 84.9835 58.5541 85.975 62.4884 85.975H62.5C75.4465 85.975 86 75.4415 86 62.4934C86 56.2177 83.5599 50.3151 79.1238 45.8823C74.6878 41.4497 68.7922 39 62.4998 39C49.5535 39 39 49.5335 39 62.4818C38.9985 66.6009 40.0815 70.648 42.1403 74.2167L39.2362 84.7996ZM45.5531 75.1606C45.8051 74.2419 45.6792 73.2602 45.2035 72.4356C43.4568 69.4079 42.5386 65.9743 42.5399 62.4818C42.5399 51.513 51.4917 42.5538 62.4998 42.5538C67.8566 42.5538 72.8542 44.6315 76.6266 48.401C80.3947 52.1664 82.4601 57.1624 82.4601 62.4934C82.4601 73.4619 73.5083 82.4212 62.5 82.4212H62.4884C59.1455 82.4212 55.8605 81.5785 52.9437 79.9923C52.1543 79.563 51.2318 79.4509 50.3632 79.6787L43.8441 81.3882L45.5531 75.1606Z" fill="#159600"/>
</svg>
